<svg width="52" height="52" viewBox="0 0 52 52" fill="none" xmlns="http://www.w3.org/2000/svg">
<circle cx="26" cy="26" r="25.8" fill="#ECE9EC" stroke="#F89AEE" stroke-width="0.4"/>
<path d="M37.7399 31.379C37.2863 32.4272 36.7493 33.3918 36.1269 34.279C35.2789 35.4882 34.5845 36.3251 34.0493 36.7901C33.2197 37.553 32.3308 37.9436 31.379 37.9659C30.6957 37.9659 29.8717 37.7715 28.9124 37.3771C27.9501 36.9844 27.0656 36.7901 26.257 36.7901C25.4089 36.7901 24.4993 36.9844 23.5263 37.3771C22.5519 37.7715 21.7669 37.977 21.1668 37.9975C20.254 38.0361 19.3442 37.6343 18.4361 36.7901C17.8565 36.2844 17.1315 35.4177 16.263 34.1901C15.3312 32.879 14.5651 31.3587 13.965 29.6254C13.3222 27.7532 13 25.9403 13 24.1852C13 22.1747 13.4344 20.4407 14.3046 18.9876C14.9885 17.8204 15.8982 16.8997 17.0369 16.2238C18.1756 15.5479 19.4059 15.2035 20.7309 15.1814C21.4558 15.1814 22.4065 15.4057 23.588 15.8464C24.7661 16.2886 25.5225 16.5129 25.8542 16.5129C26.1021 16.5129 26.9425 16.2507 28.3671 15.7279C29.7143 15.2431 30.8513 15.0424 31.7827 15.1214C34.3067 15.3251 36.203 16.3201 37.4639 18.1126C35.2067 19.4804 34.09 21.396 34.1123 23.8535C34.1326 25.7677 34.8271 27.3607 36.1919 28.6254C36.8102 29.2125 37.5011 29.6661 38.2695 29.9884C38.103 30.4717 37.9269 30.9346 37.7399 31.379ZM31.9512 8.60017C31.9512 10.1005 31.4031 11.5014 30.3105 12.798C28.9921 14.3394 27.3973 15.2301 25.6679 15.0896C25.6459 14.9096 25.6331 14.7202 25.6331 14.5211C25.6331 13.0808 26.2601 11.5393 27.3736 10.279C27.9295 9.64087 28.6365 9.11028 29.4939 8.68702C30.3494 8.27007 31.1587 8.03949 31.9197 8C31.942 8.20057 31.9512 8.40116 31.9512 8.60015V8.60017Z" fill="black"/>
</svg>
