<svg width="52" height="52" viewBox="0 0 52 52" fill="none" xmlns="http://www.w3.org/2000/svg">
<circle cx="26" cy="26" r="25.8" fill="#ECE9EC" stroke="#F89AEE" stroke-width="0.4"/>
<path d="M26 41C34.2842 41 41 34.2842 41 26C41 17.7157 34.2842 11 26 11C17.7157 11 11 17.7157 11 26C11 34.2842 17.7157 41 26 41Z" fill="#1977F3"/>
<path d="M31.8388 30.337L32.5033 26H28.3436V23.1861C28.3436 22.0006 28.9236 20.8425 30.7884 20.8425H32.6805V17.1511C32.6805 17.1511 30.9634 16.8578 29.3223 16.8578C25.8966 16.8578 23.6565 18.9335 23.6565 22.6946V26H19.8469V30.337H23.6565V40.8186C24.4201 40.9388 25.2027 41 26 41C26.7974 41 27.58 40.9367 28.3436 40.8186V30.337H31.8388Z" fill="white"/>
</svg>
