<svg width="52" height="52" viewBox="0 0 52 52" fill="none" xmlns="http://www.w3.org/2000/svg">
<circle cx="26" cy="26" r="25.8" fill="#ECE9EC" stroke="#F89AEE" stroke-width="0.4"/>
<path d="M40.9842 26.2807C40.9842 25.0516 40.8821 24.1547 40.6612 23.2245H26.2988V28.772H34.7292C34.5593 30.1506 33.6415 32.2268 31.6018 33.6219L31.5732 33.8077L36.1143 37.2454L36.429 37.2761C39.3184 34.6684 40.9842 30.8316 40.9842 26.2807Z" fill="#4285F4"/>
<path d="M26.2988 40.897C30.429 40.897 33.8963 39.5682 36.4289 37.2761L31.6018 33.622C30.31 34.5023 28.5763 35.1168 26.2988 35.1168C22.2535 35.1168 18.8202 32.5092 17.5963 28.905L17.4169 28.9199L12.695 32.4909L12.6332 32.6586C15.1487 37.5418 20.3158 40.897 26.2988 40.897Z" fill="#34A853"/>
<path d="M17.5963 28.905C17.2734 27.9748 17.0865 26.9782 17.0865 25.9485C17.0865 24.9186 17.2734 23.9221 17.5793 22.992L17.5708 22.7939L12.7897 19.1655L12.6332 19.2382C11.5965 21.2646 11.0016 23.5401 11.0016 25.9485C11.0016 28.3568 11.5965 30.6322 12.6332 32.6586L17.5963 28.905Z" fill="#FBBC05"/>
<path d="M26.2988 16.78C29.1712 16.78 31.1089 17.9925 32.2137 19.0058L36.5309 14.8866C33.8795 12.4782 30.429 11 26.2988 11C20.3158 11 15.1487 14.3551 12.6332 19.2382L17.5793 22.992C18.8202 19.3877 22.2536 16.78 26.2988 16.78Z" fill="#EB4335"/>
</svg>
