<svg width="188" height="52" viewBox="0 0 188 52" fill="none" xmlns="http://www.w3.org/2000/svg">
<circle cx="26" cy="26" r="25.8" fill="#ECE9EC" stroke="#F89AEE" stroke-width="0.4"/>
<circle cx="94" cy="26" r="25.8" fill="#ECE9EC" stroke="#F89AEE" stroke-width="0.4"/>
<circle cx="162" cy="26" r="25.8" fill="#ECE9EC" stroke="#F89AEE" stroke-width="0.4"/>
<path d="M40.9842 26.2807C40.9842 25.0516 40.8821 24.1547 40.6612 23.2245H26.2988V28.772H34.7292C34.5593 30.1506 33.6415 32.2268 31.6018 33.6219L31.5732 33.8077L36.1143 37.2454L36.429 37.2761C39.3184 34.6684 40.9842 30.8316 40.9842 26.2807" fill="#4285F4"/>
<path d="M26.2988 40.897C30.429 40.897 33.8963 39.5682 36.4289 37.2761L31.6018 33.622C30.31 34.5023 28.5763 35.1168 26.2988 35.1168C22.2535 35.1168 18.8202 32.5092 17.5963 28.905L17.4169 28.9199L12.695 32.4909L12.6332 32.6586C15.1487 37.5418 20.3158 40.897 26.2988 40.897Z" fill="#34A853"/>
<path d="M17.5963 28.905C17.2734 27.9748 17.0865 26.9782 17.0865 25.9485C17.0865 24.9186 17.2734 23.9221 17.5793 22.992L17.5708 22.7939L12.7897 19.1655L12.6332 19.2382C11.5965 21.2646 11.0016 23.5401 11.0016 25.9485C11.0016 28.3568 11.5965 30.6322 12.6332 32.6586L17.5963 28.905" fill="#FBBC05"/>
<path d="M26.2988 16.78C29.1712 16.78 31.1089 17.9925 32.2137 19.0058L36.5309 14.8866C33.8795 12.4782 30.429 11 26.2988 11C20.3158 11 15.1487 14.3551 12.6332 19.2382L17.5793 22.992C18.8202 19.3877 22.2536 16.78 26.2988 16.78" fill="#EB4335"/>
<path d="M94 41C102.284 41 109 34.2842 109 26C109 17.7157 102.284 11 94 11C85.7157 11 79 17.7157 79 26C79 34.2842 85.7157 41 94 41Z" fill="#1977F3"/>
<path d="M99.8388 30.337L100.503 26H96.3436V23.1861C96.3436 22.0006 96.9236 20.8425 98.7884 20.8425H100.68V17.1511C100.68 17.1511 98.9634 16.8578 97.3223 16.8578C93.8966 16.8578 91.6565 18.9335 91.6565 22.6946V26H87.8469V30.337H91.6565V40.8186C92.4201 40.9388 93.2027 41 94 41C94.7974 41 95.58 40.9367 96.3436 40.8186V30.337H99.8388Z" fill="white"/>
<path d="M173.74 34.379C173.286 35.4272 172.749 36.3918 172.127 37.279C171.279 38.4882 170.584 39.3251 170.049 39.7901C169.22 40.553 168.331 40.9436 167.379 40.9659C166.696 40.9659 165.872 40.7715 164.912 40.3771C163.95 39.9844 163.066 39.7901 162.257 39.7901C161.409 39.7901 160.499 39.9844 159.526 40.3771C158.552 40.7715 157.767 40.977 157.167 40.9975C156.254 41.0361 155.344 40.6343 154.436 39.7901C153.856 39.2844 153.132 38.4177 152.263 37.1901C151.331 35.879 150.565 34.3587 149.965 32.6254C149.322 30.7532 149 28.9403 149 27.1852C149 25.1747 149.434 23.4407 150.305 21.9876C150.988 20.8204 151.898 19.8997 153.037 19.2238C154.176 18.5479 155.406 18.2035 156.731 18.1814C157.456 18.1814 158.407 18.4057 159.588 18.8464C160.766 19.2886 161.523 19.5129 161.854 19.5129C162.102 19.5129 162.943 19.2507 164.367 18.7279C165.714 18.2431 166.851 18.0424 167.783 18.1214C170.307 18.3251 172.203 19.3201 173.464 21.1126C171.207 22.4804 170.09 24.396 170.112 26.8535C170.133 28.7677 170.827 30.3607 172.192 31.6254C172.81 32.2125 173.501 32.6661 174.27 32.9884C174.103 33.4717 173.927 33.9346 173.74 34.379ZM167.951 11.6002C167.951 13.1005 167.403 14.5014 166.311 15.798C164.992 17.3394 163.397 18.2301 161.668 18.0896C161.646 17.9096 161.633 17.7202 161.633 17.5211C161.633 16.0808 162.26 14.5393 163.374 13.279C163.93 12.6409 164.637 12.1103 165.494 11.687C166.349 11.2701 167.159 11.0395 167.92 11C167.942 11.2006 167.951 11.4012 167.951 11.6001V11.6002Z" fill="black"/>
</svg>
